<?xml version="1.0" encoding="UTF-8" standalone="no"?>
<!-- Created with Inkscape (http://www.inkscape.org/) -->

<svg
   xmlns:osb="http://www.openswatchbook.org/uri/2009/osb"
   xmlns:dc="http://purl.org/dc/elements/1.1/"
   xmlns:cc="http://creativecommons.org/ns#"
   xmlns:rdf="http://www.w3.org/1999/02/22-rdf-syntax-ns#"
   xmlns:svg="http://www.w3.org/2000/svg"
   xmlns="http://www.w3.org/2000/svg"
   xmlns:sodipodi="http://sodipodi.sourceforge.net/DTD/sodipodi-0.dtd"
   xmlns:inkscape="http://www.inkscape.org/namespaces/inkscape"
   width="744.09448819"
   height="1052.3622047"
   id="svg2"
   version="1.1"
   inkscape:version="0.48.4 r9939"
   inkscape:export-filename="C:\Users\Donato\Google Drive\OpenCAL\OpenCAL\documentation\OpenCAL-2.png"
   inkscape:export-xdpi="20.645161"
   inkscape:export-ydpi="20.645161"
   sodipodi:docname="Nuovo documento 1">
  <defs
     id="defs4">
    <linearGradient
       id="linearGradient5262"
       osb:paint="solid">
      <stop
         style="stop-color:#00a300;stop-opacity:1;"
         offset="0"
         id="stop5264" />
    </linearGradient>
    <linearGradient
       id="linearGradient3770"
       osb:paint="solid">
      <stop
         style="stop-color:#000000;stop-opacity:1;"
         offset="0"
         id="stop3772" />
    </linearGradient>
  </defs>
  <sodipodi:namedview
     id="base"
     pagecolor="#ffffff"
     bordercolor="#666666"
     borderopacity="1.0"
     inkscape:pageopacity="0.0"
     inkscape:pageshadow="2"
     inkscape:zoom="1.979899"
     inkscape:cx="159.80398"
     inkscape:cy="816.8369"
     inkscape:document-units="px"
     inkscape:current-layer="layer1"
     showgrid="false"
     inkscape:window-width="1600"
     inkscape:window-height="841"
     inkscape:window-x="-8"
     inkscape:window-y="-8"
     inkscape:window-maximized="1" />
  <metadata
     id="metadata7">
    <rdf:RDF>
      <cc:Work
         rdf:about="">
        <dc:format>image/svg+xml</dc:format>
        <dc:type
           rdf:resource="http://purl.org/dc/dcmitype/StillImage" />
        <dc:title></dc:title>
      </cc:Work>
    </rdf:RDF>
  </metadata>
  <g
     inkscape:label="Livello 1"
     inkscape:groupmode="layer"
     id="layer1">
    <rect
       style="fill:none;stroke:#000000;stroke-opacity:1;fill-opacity:1"
       y="75.933609"
       x="108.57143"
       height="50"
       width="50"
       id="rect3776" />
    <rect
       id="rect2985"
       width="50"
       height="50"
       x="58.57143"
       y="75.933609"
       style="fill:none;stroke:#000000;stroke-opacity:1;fill-opacity:1" />
    <rect
       id="rect3778"
       width="50"
       height="50"
       x="158.57143"
       y="75.933609"
       style="fill:none;stroke:#000000;stroke-opacity:1;fill-opacity:1" />
    <rect
       style="fill:none;stroke:#000000;stroke-opacity:1;fill-opacity:1"
       y="125.93361"
       x="58.57143"
       height="50"
       width="50"
       id="rect3780" />
    <rect
       id="rect3782"
       width="50"
       height="50"
       x="108.57143"
       y="125.93361"
       style="fill:none;stroke:#000000;stroke-opacity:1;fill-opacity:1" />
    <path
       sodipodi:type="arc"
       style="fill:#000000;fill-opacity:1;stroke:#000000;stroke-opacity:1"
       id="path3792"
       sodipodi:cx="135.17857"
       sodipodi:cy="100.75504"
       sodipodi:rx="18.035715"
       sodipodi:ry="18.035715"
       d="m 153.21429,100.75504 a 18.035715,18.035715 0 1 1 -36.07143,0 18.035715,18.035715 0 1 1 36.07143,0 z"
       transform="matrix(1.0963391,0,0,1.0963391,-14.451555,-9.7066511)" />
    <rect
       style="fill:none;stroke:#000000;stroke-opacity:1"
       y="125.93361"
       x="158.57143"
       height="50"
       width="50"
       id="rect3784" />
    <rect
       id="rect3786"
       width="50"
       height="50"
       x="58.57143"
       y="175.93361"
       style="fill:none;stroke:#000000;stroke-opacity:1" />
    <rect
       style="fill:none;stroke:#000000;stroke-opacity:1"
       y="175.93361"
       x="108.57143"
       height="50"
       width="50"
       id="rect3788" />
    <rect
       id="rect3790"
       width="50"
       height="50"
       x="158.57143"
       y="175.93361"
       style="fill:none;stroke:#000000;stroke-opacity:1" />
    <path
       sodipodi:type="arc"
       style="fill:#000000;fill-opacity:1;stroke:#000000;stroke-opacity:1"
       id="path3796"
       sodipodi:cx="135.17857"
       sodipodi:cy="100.75504"
       sodipodi:rx="18.035715"
       sodipodi:ry="18.035715"
       d="m 153.21429,100.75504 a 18.035715,18.035715 0 1 1 -36.07143,0 18.035715,18.035715 0 1 1 36.07143,0 z"
       transform="matrix(1.0963391,0,0,1.0963391,35.548445,40.293349)" />
    <path
       sodipodi:type="arc"
       style="fill:#000000;fill-opacity:1;stroke:#000000;stroke-opacity:1"
       id="path3798"
       sodipodi:cx="135.17857"
       sodipodi:cy="100.75504"
       sodipodi:rx="18.035715"
       sodipodi:ry="18.035715"
       d="m 153.21429,100.75504 a 18.035715,18.035715 0 1 1 -36.07143,0 18.035715,18.035715 0 1 1 36.07143,0 z"
       transform="matrix(1.0963391,0,0,1.0963391,-14.451555,90.29335)" />
    <path
       transform="matrix(1.0963391,0,0,1.0963391,35.548445,90.29335)"
       d="m 153.21429,100.75504 a 18.035715,18.035715 0 1 1 -36.07143,0 18.035715,18.035715 0 1 1 36.07143,0 z"
       sodipodi:ry="18.035715"
       sodipodi:rx="18.035715"
       sodipodi:cy="100.75504"
       sodipodi:cx="135.17857"
       id="path3800"
       style="fill:#000000;fill-opacity:1;stroke:#000000;stroke-opacity:1"
       sodipodi:type="arc" />
    <path
       transform="matrix(1.0963391,0,0,1.0963391,-64.451555,90.293349)"
       d="m 153.21429,100.75504 a 18.035715,18.035715 0 1 1 -36.07143,0 18.035715,18.035715 0 1 1 36.07143,0 z"
       sodipodi:ry="18.035715"
       sodipodi:rx="18.035715"
       sodipodi:cy="100.75504"
       sodipodi:cx="135.17857"
       id="path3794"
       style="fill:#000000;fill-opacity:1;stroke:#000000;stroke-opacity:1"
       sodipodi:type="arc" />
    <g
       id="g5314"
       inkscape:export-filename="C:\Users\Donato\Google Drive\OpenCAL\OpenCAL\documentation\logo.png"
       inkscape:export-xdpi="51.197067"
       inkscape:export-ydpi="51.197067">
      <path
         sodipodi:type="arc"
         style="fill:#000000;fill-opacity:1;stroke:#000000;stroke-opacity:1"
         id="path5276"
         sodipodi:cx="135.17857"
         sodipodi:cy="100.75504"
         sodipodi:rx="18.035715"
         sodipodi:ry="18.035715"
         d="m 153.21429,100.75504 a 18.035715,18.035715 0 1 1 -36.07143,0 18.035715,18.035715 0 1 1 36.07143,0 z"
         transform="matrix(1.0963391,0,0,1.0963391,195.54845,-9.7066511)" />
      <path
         sodipodi:type="arc"
         style="fill:#000000;fill-opacity:1;stroke:#000000;stroke-opacity:1"
         id="path5278"
         sodipodi:cx="135.17857"
         sodipodi:cy="100.75504"
         sodipodi:rx="18.035715"
         sodipodi:ry="18.035715"
         d="m 153.21429,100.75504 a 18.035715,18.035715 0 1 1 -36.07143,0 18.035715,18.035715 0 1 1 36.07143,0 z"
         transform="matrix(1.0963391,0,0,1.0963391,245.54845,40.293349)" />
      <path
         sodipodi:type="arc"
         style="fill:#000000;fill-opacity:1;stroke:#000000;stroke-opacity:1"
         id="path5280"
         sodipodi:cx="135.17857"
         sodipodi:cy="100.75504"
         sodipodi:rx="18.035715"
         sodipodi:ry="18.035715"
         d="m 153.21429,100.75504 a 18.035715,18.035715 0 1 1 -36.07143,0 18.035715,18.035715 0 1 1 36.07143,0 z"
         transform="matrix(1.0963391,0,0,1.0963391,195.54845,90.29335)" />
      <path
         transform="matrix(1.0963391,0,0,1.0963391,245.54845,90.29335)"
         d="m 153.21429,100.75504 a 18.035715,18.035715 0 1 1 -36.07143,0 18.035715,18.035715 0 1 1 36.07143,0 z"
         sodipodi:ry="18.035715"
         sodipodi:rx="18.035715"
         sodipodi:cy="100.75504"
         sodipodi:cx="135.17857"
         id="path5282"
         style="fill:#000000;fill-opacity:1;stroke:#000000;stroke-opacity:1"
         sodipodi:type="arc" />
      <path
         transform="matrix(1.0963391,0,0,1.0963391,145.54845,90.293349)"
         d="m 153.21429,100.75504 a 18.035715,18.035715 0 1 1 -36.07143,0 18.035715,18.035715 0 1 1 36.07143,0 z"
         sodipodi:ry="18.035715"
         sodipodi:rx="18.035715"
         sodipodi:cy="100.75504"
         sodipodi:cx="135.17857"
         id="path5284"
         style="fill:#000000;fill-opacity:1;stroke:#000000;stroke-opacity:1"
         sodipodi:type="arc" />
    </g>
    <rect
       id="rect5286"
       width="50"
       height="50"
       x="108.57143"
       y="273.93359"
       style="fill:none;stroke:#000000;stroke-opacity:0.49773756;stroke-width:0.50000000000000000;stroke-miterlimit:4;stroke-dasharray:none" />
    <rect
       style="fill:none;stroke:#000000;stroke-opacity:0.49773756;stroke-width:0.50000000000000000;stroke-miterlimit:4;stroke-dasharray:none"
       y="273.93359"
       x="58.57143"
       height="50"
       width="50"
       id="rect5288" />
    <rect
       style="fill:none;stroke:#000000;stroke-opacity:0.49773756;stroke-width:0.50000000000000000;stroke-miterlimit:4;stroke-dasharray:none"
       y="273.93359"
       x="158.57143"
       height="50"
       width="50"
       id="rect5290" />
    <rect
       id="rect5292"
       width="50"
       height="50"
       x="58.57143"
       y="323.93359"
       style="fill:none;stroke:#000000;stroke-opacity:0.49773756;stroke-width:0.50000000000000000;stroke-miterlimit:4;stroke-dasharray:none" />
    <rect
       style="fill:none;stroke:#000000;stroke-opacity:0.49773756;stroke-width:0.50000000000000000;stroke-miterlimit:4;stroke-dasharray:none"
       y="323.93359"
       x="108.57143"
       height="50"
       width="50"
       id="rect5294" />
    <path
       transform="matrix(1.0963391,0,0,1.0963391,-14.451555,188.29335)"
       d="m 153.21429,100.75504 a 18.035715,18.035715 0 1 1 -36.07143,0 18.035715,18.035715 0 1 1 36.07143,0 z"
       sodipodi:ry="18.035715"
       sodipodi:rx="18.035715"
       sodipodi:cy="100.75504"
       sodipodi:cx="135.17857"
       id="path5296"
       style="fill:#000000;fill-opacity:1;stroke:#000000;stroke-opacity:1"
       sodipodi:type="arc" />
    <rect
       id="rect5298"
       width="50"
       height="50"
       x="158.57143"
       y="323.93359"
       style="fill:none;stroke:#000000;stroke-opacity:0.49773756;stroke-width:0.50000000000000000;stroke-miterlimit:4;stroke-dasharray:none" />
    <rect
       style="fill:none;stroke:#000000;stroke-opacity:0.49773756;stroke-width:0.50000000000000000;stroke-miterlimit:4;stroke-dasharray:none"
       y="373.93359"
       x="58.57143"
       height="50"
       width="50"
       id="rect5300" />
    <rect
       id="rect5302"
       width="50"
       height="50"
       x="108.57143"
       y="373.93359"
       style="fill:none;stroke:#000000;stroke-opacity:0.49773756;stroke-width:0.50000000000000000;stroke-miterlimit:4;stroke-dasharray:none" />
    <rect
       style="fill:none;stroke:#000000;stroke-opacity:0.49773756;stroke-width:0.50000000000000000;stroke-miterlimit:4;stroke-dasharray:none"
       y="373.93359"
       x="158.57143"
       height="50"
       width="50"
       id="rect5304" />
    <path
       transform="matrix(1.0963391,0,0,1.0963391,35.548445,238.29335)"
       d="m 153.21429,100.75504 a 18.035715,18.035715 0 1 1 -36.07143,0 18.035715,18.035715 0 1 1 36.07143,0 z"
       sodipodi:ry="18.035715"
       sodipodi:rx="18.035715"
       sodipodi:cy="100.75504"
       sodipodi:cx="135.17857"
       id="path5306"
       style="fill:#000000;fill-opacity:1;stroke:#000000;stroke-opacity:1"
       sodipodi:type="arc" />
    <path
       transform="matrix(1.0963391,0,0,1.0963391,-14.451555,288.29335)"
       d="m 153.21429,100.75504 a 18.035715,18.035715 0 1 1 -36.07143,0 18.035715,18.035715 0 1 1 36.07143,0 z"
       sodipodi:ry="18.035715"
       sodipodi:rx="18.035715"
       sodipodi:cy="100.75504"
       sodipodi:cx="135.17857"
       id="path5308"
       style="fill:#000000;fill-opacity:1;stroke:#000000;stroke-opacity:1"
       sodipodi:type="arc" />
    <path
       sodipodi:type="arc"
       style="fill:#000000;fill-opacity:1;stroke:#000000;stroke-opacity:1"
       id="path5310"
       sodipodi:cx="135.17857"
       sodipodi:cy="100.75504"
       sodipodi:rx="18.035715"
       sodipodi:ry="18.035715"
       d="m 153.21429,100.75504 a 18.035715,18.035715 0 1 1 -36.07143,0 18.035715,18.035715 0 1 1 36.07143,0 z"
       transform="matrix(1.0963391,0,0,1.0963391,35.548445,288.29335)" />
    <path
       sodipodi:type="arc"
       style="fill:#000000;fill-opacity:1;stroke:#000000;stroke-opacity:1"
       id="path5312"
       sodipodi:cx="135.17857"
       sodipodi:cy="100.75504"
       sodipodi:rx="18.035715"
       sodipodi:ry="18.035715"
       d="m 153.21429,100.75504 a 18.035715,18.035715 0 1 1 -36.07143,0 18.035715,18.035715 0 1 1 36.07143,0 z"
       transform="matrix(1.0963391,0,0,1.0963391,-64.451555,288.29335)" />
  </g>
</svg>
